<svg width="56" height="56" viewBox="0 0 56 56" fill="none" xmlns="http://www.w3.org/2000/svg">
<rect y="8" width="48" height="48" rx="24" fill="#9D7DC2"/>
<circle cx="44" cy="12" r="12" fill="#FEC201"/>
<path d="M39.8124 29.2998H33.9866L26.6291 18.7924C26.4143 18.4852 25.9866 18.4081 25.6731 18.6184C25.3603 18.83 25.281 19.2499 25.4959 19.557L32.318 29.2997H15.682L22.5041 19.5571C22.719 19.2499 22.6398 18.83 22.3269 18.6184C22.0154 18.4081 21.587 18.4853 21.3709 18.7924L14.0133 29.2998H8.18752C7.80751 29.2998 7.5 29.6017 7.5 29.9748C7.5 30.3479 7.80751 30.6499 8.18752 30.6499H9.05976L13.2625 43.6187C13.6278 44.7439 14.6805 45.5 15.883 45.5H32.1171C33.3195 45.5 34.3723 44.7439 34.7375 43.618L38.9402 30.6499H39.8125C40.1925 30.6499 40.5 30.3479 40.5 29.9748C40.4999 29.6017 40.1924 29.2998 39.8124 29.2998ZM33.4269 43.2086C33.2443 43.7716 32.7179 44.1499 32.117 44.1499H15.883C15.2821 44.1499 14.7557 43.7716 14.5731 43.2093L10.5028 30.6498H37.4972L33.4269 43.2086Z" fill="#EAD7FF" stroke="#EAD7FF"/>
<rect x="37" y="10" width="14" height="4" rx="1.5" fill="white"/>
<rect x="46" y="5" width="14" height="4" rx="1.5" transform="rotate(90 46 5)" fill="white"/>
</svg>
